<svg xmlns="http://www.w3.org/2000/svg" width="90" height="76" viewBox="0 0 90 76" fill="none">
  <g filter="url(#filter0_d_49_517)">
    <path d="M56.382 32.4L47.961 24H38.7V28.2H46.239L50.439 32.4H33.45C28.2 32.4 24 36.6 24 41.85C24 47.1 28.2 51.3 33.45 51.3C38.112 51.3 41.976 47.898 42.732 43.467L47.184 40.8C47.1 41.157 47.1 41.493 47.1 41.85C47.1 47.1 51.3 51.3 56.55 51.3C61.8 51.3 66 47.1 66 41.85C66 36.6 61.8 32.4 56.55 32.4M38.364 43.446C37.65 45.567 35.718 47.1 33.387 47.1C31.9946 47.1 30.6593 46.5469 29.6747 45.5623C28.6901 44.5777 28.137 43.2424 28.137 41.85C28.137 40.4576 28.6901 39.1223 29.6747 38.1377C30.6593 37.1531 31.9946 36.6 33.387 36.6C35.739 36.6 37.65 38.154 38.364 40.275H32.4V43.425L38.364 43.446ZM56.487 47.1C55.0946 47.1 53.7593 46.5469 52.7747 45.5623C51.7901 44.5777 51.237 43.2424 51.237 41.85C51.237 40.4576 51.7901 39.1223 52.7747 38.1377C53.7593 37.1531 55.0946 36.6 56.487 36.6C57.8794 36.6 59.2147 37.1531 60.1993 38.1377C61.1839 39.1223 61.737 40.4576 61.737 41.85C61.737 43.2424 61.1839 44.5777 60.1993 45.5623C59.2147 46.5469 57.8794 47.1 56.487 47.1Z" fill="#676767"/>
  </g>
  <defs>
    <filter id="filter0_d_49_517" x="0" y="0" width="90" height="75.3" filterUnits="userSpaceOnUse" color-interpolation-filters="sRGB">
      <feFlood flood-opacity="0" result="BackgroundImageFix"/>
      <feColorMatrix in="SourceAlpha" type="matrix" values="0 0 0 0 0 0 0 0 0 0 0 0 0 0 0 0 0 0 127 0" result="hardAlpha"/>
      <feOffset/>
      <feGaussianBlur stdDeviation="12"/>
      <feComposite in2="hardAlpha" operator="out"/>
      <feColorMatrix type="matrix" values="0 0 0 0 0.403922 0 0 0 0 0.403922 0 0 0 0 0.403922 0 0 0 0.63 0"/>
      <feBlend mode="normal" in2="BackgroundImageFix" result="effect1_dropShadow_49_517"/>
      <feBlend mode="normal" in="SourceGraphic" in2="effect1_dropShadow_49_517" result="shape"/>
    </filter>
  </defs>
</svg>