<svg xmlns="http://www.w3.org/2000/svg" width="180" height="180" viewBox="0 0 69 69" fill="none">
  <path d="M33.7858 1.01833C34.104 0.834636 34.496 0.834637 34.8141 1.01833L63.1286 17.3657C63.4468 17.5494 63.6427 17.8889 63.6427 18.2563V50.951C63.6427 51.3183 63.4468 51.6578 63.1286 51.8415L34.8141 68.1889C34.496 68.3726 34.104 68.3726 33.7858 68.1889L5.47135 51.8415C5.15318 51.6578 4.95719 51.3183 4.95719 50.951V18.2563C4.95719 17.8889 5.15319 17.5494 5.47135 17.3657L33.7858 1.01833Z" fill="url(#paint0_radial_17_678)" fill-opacity="0.05" stroke="#FDDF76" stroke-width="0.685559"/>
  <path d="M33.6144 4.94013C34.0386 4.69521 34.5613 4.69521 34.9855 4.94013L59.6464 19.1781C60.0706 19.423 60.3319 19.8756 60.3319 20.3655V48.8414C60.3319 49.3312 60.0706 49.7839 59.6464 50.0288L34.9855 64.2667C34.5613 64.5117 34.0386 64.5117 33.6144 64.2667L8.95356 50.0288C8.52934 49.7839 8.268 49.3312 8.268 48.8414V20.3655C8.268 19.8756 8.52934 19.423 8.95356 19.1781L33.6144 4.94013Z" fill="url(#paint1_radial_17_678)" fill-opacity="0.15"/>
  <path d="M33.6146 14.4323C34.0388 14.1874 34.5615 14.1874 34.9857 14.4323L51.4259 23.9241C51.8502 24.169 52.1115 24.6216 52.1115 25.1115V44.095C52.1115 44.5849 51.8502 45.0375 51.4259 45.2825L34.9857 54.7742C34.5615 55.0191 34.0388 55.0191 33.6146 54.7742L17.1744 45.2825C16.7502 45.0375 16.4888 44.5849 16.4888 44.095V25.1115C16.4888 24.6216 16.7502 24.169 17.1744 23.9241L33.6146 14.4323Z" fill="url(#paint2_radial_17_678)" fill-opacity="0.15"/>
  <defs>
    <radialGradient id="paint0_radial_17_678" cx="0" cy="0" r="1" gradientUnits="userSpaceOnUse" gradientTransform="translate(34.3 34.6036) rotate(53.8807) scale(68.8625)">
      <stop stop-color="#FDDF76"/>
      <stop offset="1" stop-color="#FDDF76" stop-opacity="0"/>
    </radialGradient>
    <radialGradient id="paint1_radial_17_678" cx="0" cy="0" r="1" gradientUnits="userSpaceOnUse" gradientTransform="translate(34.3 34.6034) rotate(53.8807) scale(60.3871)">
      <stop stop-color="#FDDF76"/>
      <stop offset="1" stop-color="#FDDF76" stop-opacity="0"/>
    </radialGradient>
    <radialGradient id="paint2_radial_17_678" cx="0" cy="0" r="1" gradientUnits="userSpaceOnUse" gradientTransform="translate(34.3002 34.6033) rotate(53.8807) scale(41.3175)">
      <stop stop-color="#FDDF76"/>
      <stop offset="1" stop-color="#FDDF76" stop-opacity="0"/>
    </radialGradient>
  </defs>
</svg>