<svg xmlns="http://www.w3.org/2000/svg" width="20" height="22" viewBox="0 0 20 22" fill="none">
    <path d="M18.6656 5.46474L10.7761 1.14791C10.5653 1.03143 10.3284 0.970337 10.0875 0.970337C9.84671 0.970337 9.6098 1.03143 9.399 1.14791L1.50947 5.46653C1.28416 5.58981 1.09608 5.77132 0.964869 5.99211C0.833659 6.21289 0.764133 6.46486 0.76355 6.72169V15.2962C0.764133 15.553 0.833659 15.805 0.964869 16.0258C1.09608 16.2465 1.28416 16.4281 1.50947 16.5513L9.399 20.87C9.6098 20.9864 9.84671 21.0475 10.0875 21.0475C10.3284 21.0475 10.5653 20.9864 10.7761 20.87L18.6656 16.5513C18.8909 16.4281 19.079 16.2465 19.2102 16.0258C19.3414 15.805 19.411 15.553 19.4115 15.2962V6.72258C19.4114 6.4653 19.3421 6.21277 19.2109 5.99147C19.0797 5.77017 18.8913 5.58824 18.6656 5.46474ZM10.0875 2.40306L17.2912 6.34783L14.6213 7.80829L7.41766 3.86352L10.0875 2.40306ZM10.0875 10.2926L2.88386 6.34783L5.92402 4.68296L13.1277 8.62773L10.0875 10.2926ZM17.9771 15.2998L10.8048 19.2257V11.5325L13.6737 9.96267V13.1615C13.6737 13.3517 13.7493 13.5342 13.8838 13.6687C14.0183 13.8032 14.2007 13.8787 14.3909 13.8787C14.5811 13.8787 14.7636 13.8032 14.8981 13.6687C15.0326 13.5342 15.1082 13.3517 15.1082 13.1615V9.1773L17.9771 7.60747V15.2998Z" fill="#D7D7D7"/>
</svg>